<?xml version="1.0"?>
<svg xmlns="http://www.w3.org/2000/svg" viewBox="0 0 64 64" width="512" height="512"><title>helmet-working-safety-Construction-equipment</title><g id="Flat"><path d="M56,40V37A24.008,24.008,0,0,0,37,13.522h-.01A3.793,3.793,0,0,0,33.424,11H30.576a3.793,3.793,0,0,0-3.566,2.522H27A24.008,24.008,0,0,0,8,37v3a3,3,0,0,0,0,6h2s4,6,22,6,22-6,22-6h2a3,3,0,0,0,0-6Z" style="fill:#fed248"/><path d="M32,45c-6.583,0-12.082-.788-16.343-2.342l.686-1.879C20.384,42.252,25.651,43,32,43s11.616-.748,15.657-2.221l.686,1.879C44.082,44.212,38.583,45,32,45Z" style="fill:#e99a48"/><path d="M18.085,13.856l-1.031-1.712c.815-.492,1.662-.947,2.517-1.353l.858,1.807C19.634,12.976,18.845,13.4,18.085,13.856Z" style="fill:#ef694d"/><path d="M5.273,33.142l-1.98-.284A29.087,29.087,0,0,1,15.456,13.179L16.6,14.821A27.075,27.075,0,0,0,5.273,33.142Z" style="fill:#ef694d"/><path d="M34.023,56.976l-.046-2c16.158-.384,20.167-5.5,20.2-5.549l1.64,1.144C55.65,50.816,51.447,56.563,34.023,56.976Z" style="fill:#ef694d"/><rect x="39" y="36" width="3" height="2" style="fill:#e99a48"/><rect x="22" y="36" width="3" height="2" style="fill:#e99a48"/><path d="M43.012,28.152l1.976-.3-1.862-12.1c-.709-.371-1.432-.72-2.18-1.021Z" style="fill:#e99a48"/><path d="M20.988,28.152l-1.976-.3,1.862-12.1c.709-.371,1.432-.72,2.18-1.021Z" style="fill:#e99a48"/><path d="M27.989,12.034a3.84,3.84,0,0,0-.979,1.488H27c-.394.083-.777.2-1.164.3L25,23.918,27,24.082Z" style="fill:#e99a48"/><path d="M36.011,12.034a3.84,3.84,0,0,1,.979,1.488H37c.394.083.777.2,1.164.3L39,23.918,37,24.082Z" style="fill:#e99a48"/><circle cx="32" cy="37" r="7" style="fill:#56a8c6"/><path d="M32,41a4,4,0,0,1,0-8v2a2,2,0,1,0,2,2h2A4,4,0,0,1,32,41Z" style="fill:#80c5d4"/></g></svg>
